<svg width="24" height="24" viewBox="0 0 24 24" fill="none" xmlns="http://www.w3.org/2000/svg">
<path d="M16 22.0268V18.1568C16.0375 17.68 15.9731 17.2006 15.811 16.7506C15.6489 16.3006 15.3929 15.8902 15.06 15.5468C18.2 15.1968 21.5 14.0068 21.5 8.54679C21.4997 7.15062 20.9627 5.80799 20 4.79679C20.4559 3.5753 20.4236 2.22514 19.91 1.02679C19.91 1.02679 18.73 0.676793 16 2.50679C13.708 1.88561 11.292 1.88561 9 2.50679C6.27 0.676793 5.09 1.02679 5.09 1.02679C4.57638 2.22514 4.54414 3.5753 5 4.79679C4.03013 5.81549 3.49252 7.17026 3.5 8.57679C3.5 13.9968 6.8 15.1868 9.94 15.5768C9.611 15.9168 9.35726 16.3222 9.19531 16.7667C9.03335 17.2112 8.96681 17.6849 9 18.1568V22.0268M9 19.0268C4 20.5268 4 16.5268 2 16.0268L9 19.0268Z" stroke="white" stroke-width="1.4" stroke-linecap="round" stroke-linejoin="round"/>
</svg>
